<svg width="559" height="111" viewBox="0 0 559 111" fill="none" xmlns="http://www.w3.org/2000/svg">
<g clip-path="url(#clip0_18_373)">
<path d="M120.512 110.504C112.917 110.504 107.243 108.712 103.488 105.128C99.8187 101.459 97.984 96.2534 97.984 89.5121V61.7361H88V44.9681H97.984V20H117.952V44.9681H132.544V61.7361H117.952V84.5201C117.952 87.0801 118.421 88.9574 119.36 90.1521C120.299 91.3468 121.749 91.9441 123.712 91.9441C124.48 91.9441 125.376 91.7734 126.4 91.4321C127.424 91.0054 128.363 90.4934 129.216 89.8961L136.128 104.488C134.08 106.195 131.605 107.645 128.704 108.84C125.888 109.949 123.157 110.504 120.512 110.504Z" fill="#2A1F1A"/>
<path d="M242.657 110.504C236.001 110.504 230.113 109.096 224.993 106.28C219.873 103.464 215.862 99.5388 212.961 94.5041C210.06 89.4694 208.609 83.6241 208.609 76.9681C208.609 70.3121 210.06 64.4668 212.961 59.4321C215.862 54.3974 219.873 50.4721 224.993 47.6561C230.198 44.8401 236.172 43.4321 242.913 43.4321C248.972 43.4321 254.433 44.8828 259.297 47.7841C264.161 50.6854 268.001 55.0374 270.817 60.8401C273.718 66.5574 275.169 73.6401 275.169 82.0881H229.345C229.772 85.7574 231.265 88.7014 233.825 90.9201C236.47 93.0534 239.585 94.1201 243.169 94.1201C246.326 94.1201 248.972 93.4374 251.105 92.0721C253.238 90.6214 254.732 88.8294 255.585 86.6961L273.377 92.7121C271.67 96.8081 269.238 100.179 266.081 102.824C263.009 105.469 259.468 107.432 255.457 108.712C251.446 109.907 247.18 110.504 242.657 110.504ZM229.857 68.7761H254.305C253.964 66.3014 253.153 64.3388 251.873 62.8881C250.593 61.3521 249.1 60.2428 247.393 59.5601C245.686 58.8774 243.98 58.5361 242.273 58.5361C240.652 58.5361 238.945 58.8774 237.153 59.5601C235.361 60.1574 233.782 61.2241 232.417 62.7601C231.137 64.2108 230.284 66.2161 229.857 68.7761Z" fill="#2A1F1A"/>
<path fill-rule="evenodd" clip-rule="evenodd" d="M299.922 38.448C302.226 40.6667 304.871 41.776 307.858 41.776C310.93 41.776 313.575 40.6667 315.794 38.448C318.013 36.144 319.122 33.4987 319.122 30.512C319.122 27.3547 318.013 24.7094 315.794 22.576C313.575 20.3574 310.93 19.248 307.858 19.248C304.871 19.248 302.226 20.3574 299.922 22.576C297.703 24.7094 296.594 27.3547 296.594 30.512C296.594 33.4987 297.703 36.144 299.922 38.448Z" fill="#2A1F1A"/>
<path d="M328.257 108.968V44.9681H347.073L347.841 53.1601C349.974 50.0881 352.577 47.6988 355.649 45.9921C358.721 44.2854 362.177 43.4321 366.017 43.4321C371.137 43.4321 375.446 44.4988 378.945 46.6321C382.444 48.6801 385.046 51.8374 386.753 56.1041C388.545 60.3708 389.441 65.8321 389.441 72.4881V108.968H369.473V76.2001C369.473 72.7868 369.089 70.0988 368.321 68.1361C367.553 66.0881 366.444 64.5948 364.993 63.6561C363.628 62.7174 361.921 62.2054 359.873 62.1201C356.033 62.0348 353.132 63.1014 351.169 65.3201C349.206 67.4534 348.225 70.7388 348.225 75.1761V108.968H328.257Z" fill="#2A1F1A"/>
<path d="M425.312 110.504C417.717 110.504 412.043 108.712 408.288 105.128C404.619 101.459 402.784 96.2534 402.784 89.5121V61.7361H392.8V44.9681H402.784V20.0001H422.752V44.9681H437.344V61.7361H422.752V84.5201C422.752 87.0801 423.221 88.9574 424.16 90.1521C425.099 91.3468 426.549 91.9441 428.512 91.9441C429.28 91.9441 430.176 91.7734 431.2 91.4321C432.224 91.0054 433.163 90.4934 434.016 89.8961L440.928 104.488C438.88 106.195 436.405 107.645 433.504 108.84C430.688 109.949 427.957 110.504 425.312 110.504Z" fill="#2A1F1A"/>
<path d="M446.952 108.968V44.9681H466.92V56.8721C469.565 52.8614 472.936 49.8321 477.032 47.7841C481.128 45.7361 485.309 44.7121 489.576 44.7121V64.1681C485.651 64.1681 481.939 64.5948 478.44 65.4481C475.027 66.3014 472.253 67.6241 470.12 69.4161C467.987 71.1228 466.92 73.3414 466.92 76.0721V108.968H446.952Z" fill="#2A1F1A"/>
<path d="M525.088 110.504C518.347 110.504 512.416 109.096 507.296 106.28C502.176 103.379 498.123 99.4108 495.136 94.3761C492.235 89.3414 490.784 83.5388 490.784 76.9681C490.784 70.3974 492.192 64.5948 495.008 59.5601C497.909 54.5254 501.92 50.6001 507.04 47.7841C512.245 44.8828 518.133 43.4321 524.704 43.4321C531.445 43.4321 537.376 44.8828 542.496 47.7841C547.701 50.6001 551.712 54.5254 554.528 59.5601C557.429 64.5948 558.88 70.3974 558.88 76.9681C558.88 83.5388 557.429 89.3414 554.528 94.3761C551.712 99.4108 547.744 103.379 542.624 106.28C537.504 109.096 531.659 110.504 525.088 110.504ZM525.088 92.0721C527.648 92.0721 529.909 91.4321 531.872 90.1521C533.92 88.8721 535.499 87.1228 536.608 84.9041C537.803 82.6001 538.4 79.9548 538.4 76.9681C538.4 73.9814 537.803 71.3788 536.608 69.1601C535.499 66.8561 533.92 65.0641 531.872 63.7841C529.824 62.5041 527.477 61.8641 524.832 61.8641C522.187 61.8641 519.84 62.5041 517.792 63.7841C515.744 65.0641 514.123 66.8561 512.928 69.1601C511.819 71.3788 511.264 73.9814 511.264 76.9681C511.264 79.9548 511.819 82.6001 512.928 84.9041C514.123 87.1228 515.744 88.8721 517.792 90.1521C519.925 91.4321 522.357 92.0721 525.088 92.0721Z" fill="#2A1F1A"/>
<path d="M307.858 44.9681C302.344 44.9681 297.874 49.4381 297.874 54.9521V108.968H317.842V54.9521C317.842 49.4381 313.372 44.9681 307.858 44.9681Z" fill="#2A1F1A"/>
<path d="M142.408 19.368V108.968H162.376V75.1761C162.376 70.7388 163.357 67.4534 165.32 65.3201C167.283 63.1014 170.184 62.0348 174.024 62.1201C175.987 62.2054 177.693 62.7174 179.144 63.6561C180.595 64.5948 181.704 66.0881 182.472 68.1361C183.24 70.0988 183.624 72.7868 183.624 76.2001V108.968H203.592V72.4881C203.592 65.8321 202.696 60.3708 200.904 56.1041C199.197 51.8374 196.595 48.6801 193.096 46.6321C189.597 44.4988 185.245 43.4321 180.04 43.4321C176.371 43.4321 173.043 44.2001 170.056 45.7361C167.069 47.2721 164.509 49.5761 162.376 52.6481V19.368H142.408Z" fill="#2A1F1A"/>
<path d="M15.2377 0C16.3306 0.39288 17.7589 1.13202 18.7391 1.71642C40.5165 14.7026 40.7104 36.6457 30.2942 54.8042C26.7837 60.9245 20.5271 66.4995 18.3904 72.8654C16.6405 78.0788 17.9549 84.5208 18.9791 89.7342L18.9554 89.9815L18.7144 90C14.3945 86.1721 8.26501 78.0336 5.42784 73.5608C-10.7744 48.0195 14.0668 41.8625 18.1445 19.5426C19.3099 13.1626 17.3883 6.21351 15.2377 0Z" fill="#2A1F1A"/>
<path d="M46.2598 21C46.9803 21.2211 48.6059 22.0484 49.2833 22.4404C71.3158 35.1896 71.7777 57.2384 61.5681 75.4729C58.0119 81.8237 51.8357 87.1703 49.5142 93.6863C47.6484 98.927 48.8153 105.437 50.0129 110.647L49.9483 111L49.5542 110.954C45.567 107.534 38.8766 98.5508 36.3026 94.453C20.8333 69.8159 43.6089 63.4673 48.9076 42.0538C50.5641 35.3529 48.5228 27.6262 46.2598 21Z" fill="#2A1F1A"/>
</g>
<defs>
<clipPath id="clip0_18_373">
<rect width="559" height="111" fill="white"/>
</clipPath>
</defs>
</svg>
