<svg width="128" height="128" viewBox="0 0 128 128" fill="none" xmlns="http://www.w3.org/2000/svg">
<rect width="128" height="128" fill="#ECE3D5"/>
<path d="M48.3247 19C49.2086 19.3178 50.3638 19.9156 51.1566 20.3883C68.7707 30.8918 68.9275 48.6399 60.5027 63.3269C57.6633 68.2772 52.6028 72.7864 50.8746 77.9352C49.4592 82.152 50.5223 87.3624 51.3507 91.5792L51.3316 91.7792L51.1367 91.7941C47.6426 88.698 42.6849 82.1154 40.3902 78.4977C27.2854 57.8393 47.3775 52.8594 50.6757 34.8065C51.6183 29.6462 50.0641 24.0256 48.3247 19Z" fill="#2C1E19"/>
<path d="M73.4162 35.9854C73.9989 36.1641 75.3138 36.8333 75.8617 37.1504C93.6821 47.4623 94.0557 65.2958 85.7979 80.0443C82.9216 85.181 77.9261 89.5055 76.0484 94.7757C74.5393 99.0145 75.4831 104.28 76.4518 108.494L76.3996 108.779L76.0808 108.742C72.8559 105.976 67.4445 98.7103 65.3626 95.3958C52.8507 75.4688 71.2721 70.3339 75.5578 53.0141C76.8976 47.5943 75.2466 41.3448 73.4162 35.9854Z" fill="#2C1E19"/>
</svg>
